<mxfile host="app.diagrams.net" agent="Mozilla/5.0 (Windows NT 10.0; Win64; x64; rv:137.0) Gecko/20100101 Firefox/137.0" version="26.2.13">
  <diagram name="FE_CS_Floods" id="Fl7lTP8CgrJQdIfu86Pg">
    <mxGraphModel grid="1" page="1" gridSize="10" guides="1" tooltips="1" connect="1" arrows="1" fold="1" pageScale="1" pageWidth="3300" pageHeight="4681" math="0" shadow="0">
      <root>
        <mxCell id="SzkD9skeZVJdTODsGsiK-0" />
        <mxCell id="SzkD9skeZVJdTODsGsiK-1" parent="SzkD9skeZVJdTODsGsiK-0" />
        <mxCell id="SzkD9skeZVJdTODsGsiK-2" value="catt" style="swimlane;html=1;childLayout=stackLayout;resizeParent=1;resizeParentMax=0;horizontal=0;startSize=20;horizontalStack=0;whiteSpace=wrap;fontStyle=0" vertex="1" parent="SzkD9skeZVJdTODsGsiK-1">
          <mxGeometry x="50" y="-4390" width="1650" height="1360" as="geometry">
            <mxRectangle x="99" y="-2240" width="40" height="50" as="alternateBounds" />
          </mxGeometry>
        </mxCell>
        <mxCell id="SzkD9skeZVJdTODsGsiK-3" value="Field data collection" style="swimlane;html=1;startSize=58;horizontal=0;whiteSpace=wrap;" vertex="1" parent="SzkD9skeZVJdTODsGsiK-2">
          <mxGeometry x="20" width="1630" height="390" as="geometry">
            <mxRectangle x="20" width="1133" height="30" as="alternateBounds" />
          </mxGeometry>
        </mxCell>
        <mxCell id="SzkD9skeZVJdTODsGsiK-4" style="edgeStyle=orthogonalEdgeStyle;rounded=0;orthogonalLoop=1;jettySize=auto;html=1;entryX=0;entryY=0.5;entryDx=0;entryDy=0;entryPerimeter=0;" edge="1" parent="SzkD9skeZVJdTODsGsiK-3" source="SzkD9skeZVJdTODsGsiK-5" target="SzkD9skeZVJdTODsGsiK-6">
          <mxGeometry relative="1" as="geometry">
            <mxPoint x="120" y="284" as="targetPoint" />
          </mxGeometry>
        </mxCell>
        <mxCell id="SzkD9skeZVJdTODsGsiK-5" value="" style="points=[[0.145,0.145,0],[0.5,0,0],[0.855,0.145,0],[1,0.5,0],[0.855,0.855,0],[0.5,1,0],[0.145,0.855,0],[0,0.5,0]];shape=mxgraph.bpmn.event;html=1;verticalLabelPosition=bottom;labelBackgroundColor=#ffffff;verticalAlign=top;align=center;perimeter=ellipsePerimeter;outlineConnect=0;aspect=fixed;outline=standard;symbol=general;" vertex="1" parent="SzkD9skeZVJdTODsGsiK-3">
          <mxGeometry x="100" y="100" width="30" height="30" as="geometry" />
        </mxCell>
        <mxCell id="SzkD9skeZVJdTODsGsiK-6" value="&lt;h6 style=&quot;line-height: 100%;&quot;&gt;&lt;span style=&quot;font-weight: normal;&quot;&gt;&lt;font face=&quot;Arial&quot;&gt;&lt;span style=&quot;font-size: 8px;&quot;&gt;Draw (simplified) flooded areas using&lt;/span&gt;&lt;/font&gt;&amp;nbsp;&lt;/span&gt;&lt;span style=&quot;font-size: 8.04px;&quot;&gt;Qfield&amp;nbsp;&lt;br&gt;&lt;/span&gt;&lt;font color=&quot;#ff0000&quot;&gt;&lt;a href=&quot;https://usage.geocat.live/catalogue/srv/eng/catalog.search#/metadata/2d239512-faaa-4024-8c0f-ac369fbeb404&quot;&gt;Link to tools metadata&lt;/a&gt;&lt;/font&gt;&lt;/h6&gt;" style="points=[[0.25,0,0],[0.5,0,0],[0.75,0,0],[1,0.25,0],[1,0.5,0],[1,0.75,0],[0.75,1,0],[0.5,1,0],[0.25,1,0],[0,0.75,0],[0,0.5,0],[0,0.25,0]];shape=mxgraph.bpmn.task;whiteSpace=wrap;rectStyle=rounded;size=10;html=1;container=1;expand=0;collapsible=0;taskMarker=abstract;fillColor=#ff9b29;fontColor=#000000;strokeColor=#BD7000;" vertex="1" parent="SzkD9skeZVJdTODsGsiK-3">
          <mxGeometry x="192" y="90" width="200" height="50" as="geometry" />
        </mxCell>
        <UserObject label="&lt;div style=&quot;line-height: 100%;&quot;&gt;&lt;div style=&quot;line-height: 100%;&quot;&gt;&lt;div style=&quot;line-height: 100%;&quot;&gt;&lt;span style=&quot;font-size: 8px;&quot;&gt;Simplified flooded areas reported&lt;/span&gt;&lt;br&gt;&lt;/div&gt;&lt;/div&gt;&lt;div style=&quot;font-size: 8px; line-height: 100%;&quot;&gt;&lt;span style=&quot;font-family: Arial; background-color: initial;&quot;&gt;&amp;nbsp;&lt;/span&gt;&lt;a href=&quot;https://usage.geocat.live/catalogue/srv/eng/catalog.search#/metadata/2b147d2f-44ad-4a7f-a017-ba9abe6d4aa5&quot; style=&quot;font-family: Arial; background-color: initial;&quot;&gt;link to dataset metadata&lt;/a&gt;&lt;br&gt;&lt;/div&gt;&lt;/div&gt;" id="SzkD9skeZVJdTODsGsiK-7">
          <mxCell style="shape=mxgraph.bpmn.data;labelPosition=center;verticalLabelPosition=bottom;align=center;verticalAlign=top;size=15;html=1;" vertex="1" parent="SzkD9skeZVJdTODsGsiK-3">
            <mxGeometry x="284.5" y="177" width="30" height="32" as="geometry" />
          </mxCell>
        </UserObject>
        <mxCell id="SzkD9skeZVJdTODsGsiK-8" style="edgeStyle=orthogonalEdgeStyle;rounded=0;orthogonalLoop=1;jettySize=auto;html=1;entryX=0;entryY=0;entryDx=7.5;entryDy=0;entryPerimeter=0;dashed=1;" edge="1" parent="SzkD9skeZVJdTODsGsiK-3" source="SzkD9skeZVJdTODsGsiK-6" target="SzkD9skeZVJdTODsGsiK-7">
          <mxGeometry relative="1" as="geometry" />
        </mxCell>
        <UserObject label="&lt;div style=&quot;&quot;&gt;&lt;div style=&quot;&quot;&gt;&lt;font face=&quot;Arial&quot;&gt;&lt;span style=&quot;font-size: 8px;&quot;&gt;Empty layer for flooded&amp;nbsp;&lt;/span&gt;&lt;/font&gt;&lt;/div&gt;&lt;div style=&quot;&quot;&gt;&lt;font face=&quot;Arial&quot;&gt;&lt;span style=&quot;font-size: 8px;&quot;&gt;area reporting&lt;/span&gt;&lt;/font&gt;&lt;/div&gt;&lt;/div&gt;" id="SzkD9skeZVJdTODsGsiK-9">
          <mxCell style="shape=mxgraph.bpmn.data;labelPosition=center;verticalLabelPosition=bottom;align=center;verticalAlign=top;size=15;html=1;" vertex="1" parent="SzkD9skeZVJdTODsGsiK-3">
            <mxGeometry x="140" y="10" width="28" height="34" as="geometry" />
          </mxCell>
        </UserObject>
        <mxCell id="SzkD9skeZVJdTODsGsiK-10" style="edgeStyle=orthogonalEdgeStyle;rounded=0;orthogonalLoop=1;jettySize=auto;html=1;entryX=0.006;entryY=0.128;entryDx=0;entryDy=0;entryPerimeter=0;dashed=1;exitX=0.5;exitY=1;exitDx=0;exitDy=0;exitPerimeter=0;" edge="1" parent="SzkD9skeZVJdTODsGsiK-3" source="SzkD9skeZVJdTODsGsiK-9" target="SzkD9skeZVJdTODsGsiK-6">
          <mxGeometry relative="1" as="geometry">
            <Array as="points">
              <mxPoint x="150" y="44" />
              <mxPoint x="150" y="96" />
            </Array>
          </mxGeometry>
        </mxCell>
        <UserObject label="&lt;div style=&quot;&quot;&gt;&lt;div style=&quot;&quot;&gt;&lt;font face=&quot;Arial&quot;&gt;&lt;span style=&quot;font-size: 8px;&quot;&gt;Orthophoto (via WMS)&lt;/span&gt;&lt;/font&gt;&lt;br&gt;&lt;/div&gt;&lt;div style=&quot;font-size: 8px;&quot;&gt;&lt;font face=&quot;Arial&quot; style=&quot;font-size: 8px;&quot;&gt;&amp;nbsp;&lt;a href=&quot;https://usage.geocat.live/catalogue/srv/ita/catalog.search#/metadata/f4e9f405-5fbb-4e82-af15-d8045c14c89a&quot;&gt;link to dataset metadata&lt;/a&gt;&lt;/font&gt;&lt;/div&gt;&lt;/div&gt;" id="74SUNnzkTKtyADVK5N_D-0">
          <mxCell style="shape=mxgraph.bpmn.data;labelPosition=center;verticalLabelPosition=bottom;align=center;verticalAlign=top;size=15;html=1;" vertex="1" parent="SzkD9skeZVJdTODsGsiK-3">
            <mxGeometry x="278" y="10" width="28" height="34" as="geometry" />
          </mxCell>
        </UserObject>
        <mxCell id="74SUNnzkTKtyADVK5N_D-1" style="edgeStyle=orthogonalEdgeStyle;rounded=0;orthogonalLoop=1;jettySize=auto;html=1;dashed=1;exitX=0.5;exitY=1;exitDx=0;exitDy=0;exitPerimeter=0;entryX=0.34;entryY=-0.003;entryDx=0;entryDy=0;entryPerimeter=0;" edge="1" parent="SzkD9skeZVJdTODsGsiK-3" source="74SUNnzkTKtyADVK5N_D-0" target="SzkD9skeZVJdTODsGsiK-6">
          <mxGeometry relative="1" as="geometry">
            <mxPoint x="260" y="90" as="targetPoint" />
          </mxGeometry>
        </mxCell>
        <UserObject label="&lt;h6 style=&quot;line-height: 100%;&quot;&gt;&lt;font face=&quot;Arial&quot; style=&quot;&quot;&gt;&lt;span style=&quot;font-size: 8px;&quot;&gt;&lt;span style=&quot;font-weight: normal;&quot;&gt;Publish final draft DRI with partners &lt;br&gt;&lt;/span&gt;GeoCatBridg QGIS plugin&amp;nbsp; &lt;br&gt;&lt;a href=&quot;https://usage.geocat.live/catalogue/srv/ita/catalog.search#/metadata/f4fe374e-0a56-4910-9f3a-e8b7519c373e&quot;&gt;Link to tool metadata&lt;/a&gt;&lt;/span&gt;&lt;/font&gt;&lt;/h6&gt;" linkTarget="_blank" id="74SUNnzkTKtyADVK5N_D-13">
          <mxCell style="points=[[0.25,0,0],[0.5,0,0],[0.75,0,0],[1,0.25,0],[1,0.5,0],[1,0.75,0],[0.75,1,0],[0.5,1,0],[0.25,1,0],[0,0.75,0],[0,0.5,0],[0,0.25,0]];shape=mxgraph.bpmn.task;whiteSpace=wrap;rectStyle=rounded;size=10;html=1;container=1;expand=0;collapsible=0;taskMarker=abstract;fillColor=#ff9b29;fontColor=#000000;strokeColor=#BD7000;" vertex="1" parent="SzkD9skeZVJdTODsGsiK-3">
            <mxGeometry x="1143" y="788" width="156" height="44" as="geometry" />
          </mxCell>
        </UserObject>
        <UserObject label="&lt;div style=&quot;&quot;&gt;&lt;div style=&quot;&quot;&gt;&lt;font face=&quot;Arial&quot;&gt;&lt;span style=&quot;font-size: 8px;&quot;&gt;OSM&lt;/span&gt;&lt;/font&gt;&lt;/div&gt;&lt;/div&gt;" id="74SUNnzkTKtyADVK5N_D-2">
          <mxCell style="shape=mxgraph.bpmn.data;labelPosition=center;verticalLabelPosition=bottom;align=center;verticalAlign=top;size=15;html=1;" vertex="1" parent="SzkD9skeZVJdTODsGsiK-3">
            <mxGeometry x="210" y="10" width="28" height="34" as="geometry" />
          </mxCell>
        </UserObject>
        <mxCell id="74SUNnzkTKtyADVK5N_D-3" style="edgeStyle=orthogonalEdgeStyle;rounded=0;orthogonalLoop=1;jettySize=auto;html=1;entryX=0.162;entryY=0.018;entryDx=0;entryDy=0;entryPerimeter=0;dashed=1;exitX=0.5;exitY=1;exitDx=0;exitDy=0;exitPerimeter=0;" edge="1" parent="SzkD9skeZVJdTODsGsiK-3" source="74SUNnzkTKtyADVK5N_D-2" target="SzkD9skeZVJdTODsGsiK-6">
          <mxGeometry relative="1" as="geometry">
            <mxPoint x="224" y="90" as="targetPoint" />
          </mxGeometry>
        </mxCell>
        <UserObject label="&lt;div style=&quot;&quot;&gt;&lt;div style=&quot;&quot;&gt;&lt;font face=&quot;Arial&quot;&gt;&lt;span style=&quot;font-size: 8px;&quot;&gt;Flood reports 2020-2022&lt;/span&gt;&lt;/font&gt;&lt;br&gt;&lt;/div&gt;&lt;div style=&quot;font-size: 8px;&quot;&gt;&lt;font face=&quot;Arial&quot; style=&quot;font-size: 8px;&quot;&gt;&amp;nbsp;&lt;a href=&quot;https://usage.geocat.live/catalogue/srv/ita/catalog.search#/metadata/e8f53bfc-6b4f-4607-a69c-a5670a60ada8&quot;&gt;link to dataset metadata&lt;/a&gt;&lt;/font&gt;&lt;/div&gt;&lt;/div&gt;" id="pdKRyIEJhpnBWiq7Z5HK-0">
          <mxCell style="shape=mxgraph.bpmn.data;labelPosition=center;verticalLabelPosition=bottom;align=center;verticalAlign=top;size=15;html=1;" vertex="1" parent="SzkD9skeZVJdTODsGsiK-3">
            <mxGeometry x="374.2" y="10" width="28" height="34" as="geometry" />
          </mxCell>
        </UserObject>
        <mxCell id="pdKRyIEJhpnBWiq7Z5HK-1" style="edgeStyle=orthogonalEdgeStyle;rounded=0;orthogonalLoop=1;jettySize=auto;html=1;dashed=1;entryX=0.642;entryY=0.028;entryDx=0;entryDy=0;entryPerimeter=0;" edge="1" parent="SzkD9skeZVJdTODsGsiK-3" source="pdKRyIEJhpnBWiq7Z5HK-0" target="SzkD9skeZVJdTODsGsiK-6">
          <mxGeometry relative="1" as="geometry">
            <mxPoint x="319.99999999999994" y="91.69999999999982" as="targetPoint" />
            <Array as="points">
              <mxPoint x="370" y="80" />
              <mxPoint x="320" y="80" />
            </Array>
          </mxGeometry>
        </mxCell>
        <UserObject label="&lt;div style=&quot;&quot;&gt;&lt;div style=&quot;&quot;&gt;&lt;font face=&quot;Arial&quot;&gt;&lt;span style=&quot;font-size: 8px;&quot;&gt;Flood reports 2015-2019&lt;/span&gt;&lt;/font&gt;&lt;br&gt;&lt;/div&gt;&lt;div style=&quot;font-size: 8px;&quot;&gt;&lt;font face=&quot;Arial&quot; style=&quot;font-size: 8px;&quot;&gt;&amp;nbsp;&lt;a href=&quot;https://usage.geocat.live/catalogue/srv/ita/catalog.search#/metadata/dc92bc51-6824-42bc-857b-8742bdd8a42b&quot;&gt;link to dataset metadata&lt;/a&gt;&lt;/font&gt;&lt;/div&gt;&lt;/div&gt;" id="pdKRyIEJhpnBWiq7Z5HK-4">
          <mxCell style="shape=mxgraph.bpmn.data;labelPosition=center;verticalLabelPosition=bottom;align=center;verticalAlign=top;size=15;html=1;" vertex="1" parent="SzkD9skeZVJdTODsGsiK-3">
            <mxGeometry x="471" y="10" width="28" height="34" as="geometry" />
          </mxCell>
        </UserObject>
        <mxCell id="pdKRyIEJhpnBWiq7Z5HK-5" style="edgeStyle=orthogonalEdgeStyle;rounded=0;orthogonalLoop=1;jettySize=auto;html=1;dashed=1;entryX=0.915;entryY=0.005;entryDx=0;entryDy=0;entryPerimeter=0;exitX=0.5;exitY=1;exitDx=0;exitDy=0;exitPerimeter=0;" edge="1" parent="SzkD9skeZVJdTODsGsiK-3" source="pdKRyIEJhpnBWiq7Z5HK-4" target="SzkD9skeZVJdTODsGsiK-6">
          <mxGeometry relative="1" as="geometry">
            <mxPoint x="444.5" y="92" as="targetPoint" />
            <Array as="points">
              <mxPoint x="470" y="44" />
              <mxPoint x="470" y="80" />
              <mxPoint x="374" y="80" />
              <mxPoint x="374" y="90" />
            </Array>
          </mxGeometry>
        </mxCell>
        <UserObject label="&lt;div style=&quot;&quot;&gt;&lt;div style=&quot;&quot;&gt;&lt;span style=&quot;background-color: initial; font-size: 8px;&quot;&gt;&lt;font face=&quot;Arial&quot;&gt;Flooding from heavy&amp;nbsp;&lt;/font&gt;&lt;/span&gt;&lt;/div&gt;&lt;div style=&quot;&quot;&gt;&lt;span style=&quot;background-color: initial; font-size: 8px;&quot;&gt;&lt;font face=&quot;Arial&quot;&gt;rains in urban areas&lt;/font&gt;&lt;/span&gt;&lt;/div&gt;&lt;div style=&quot;&quot;&gt;&lt;span style=&quot;font-size: 8px; font-family: Arial; background-color: initial;&quot;&gt;&amp;nbsp;&lt;/span&gt;&lt;a href=&quot;https://usage.geocat.live/catalogue/srv/ita/catalog.search#/metadata/a2831652-6de6-42a9-8cfa-83f0ad1f39d8&quot; style=&quot;font-size: 8px; font-family: Arial; background-color: initial;&quot;&gt;link to dataset metadata&lt;/a&gt;&lt;br&gt;&lt;/div&gt;&lt;/div&gt;" id="pdKRyIEJhpnBWiq7Z5HK-6">
          <mxCell style="shape=mxgraph.bpmn.data;labelPosition=center;verticalLabelPosition=bottom;align=center;verticalAlign=top;size=15;html=1;" vertex="1" parent="SzkD9skeZVJdTODsGsiK-3">
            <mxGeometry x="556" y="10" width="28" height="34" as="geometry" />
          </mxCell>
        </UserObject>
        <mxCell id="pdKRyIEJhpnBWiq7Z5HK-7" style="edgeStyle=orthogonalEdgeStyle;rounded=0;orthogonalLoop=1;jettySize=auto;html=1;dashed=1;exitX=0.5;exitY=1;exitDx=0;exitDy=0;exitPerimeter=0;entryX=1;entryY=0.25;entryDx=0;entryDy=0;entryPerimeter=0;" edge="1" parent="SzkD9skeZVJdTODsGsiK-3" source="pdKRyIEJhpnBWiq7Z5HK-6" target="SzkD9skeZVJdTODsGsiK-6">
          <mxGeometry relative="1" as="geometry">
            <mxPoint x="470" y="110" as="targetPoint" />
            <Array as="points">
              <mxPoint x="566" y="44" />
              <mxPoint x="566" y="80" />
              <mxPoint x="541" y="80" />
              <mxPoint x="541" y="103" />
            </Array>
          </mxGeometry>
        </mxCell>
        <mxCell id="cAKSegc-jqCY6T3uYCW5-0" value="removed &lt;br&gt;&lt;div style=&quot;line-height: 100%;&quot;&gt;&lt;div style=&quot;line-height: 100%;&quot;&gt;&lt;span style=&quot;font-size: 8px;&quot;&gt;Merged flooded areas reported&lt;/span&gt;&lt;br&gt;&lt;/div&gt;&lt;/div&gt;&lt;div style=&quot;font-size: 8px; line-height: 100%;&quot;&gt;&lt;a href=&quot;https://usage.geocat.live/catalogue/srv/eng/catalog.search#/metadata/2b147d2f-44ad-4a7f-a017-ba9abe6d4aa5&quot; style=&quot;font-family: Arial; background-color: initial;&quot;&gt;link to dataset metadata&lt;/a&gt;&lt;/div&gt;" style="shape=note;whiteSpace=wrap;html=1;backgroundOutline=1;darkOpacity=0.05;fillColor=light-dark(#FF0000,var(--ge-dark-color, #121212));" vertex="1" parent="SzkD9skeZVJdTODsGsiK-3">
          <mxGeometry x="472" y="260" width="80" height="100" as="geometry" />
        </mxCell>
        <mxCell id="SzkD9skeZVJdTODsGsiK-34" value="&lt;div&gt;Data processing&lt;/div&gt;" style="swimlane;html=1;startSize=58;horizontal=0;autosize=0;fixedWidth=0;whiteSpace=wrap;" vertex="1" parent="SzkD9skeZVJdTODsGsiK-2">
          <mxGeometry x="20" y="390" width="1630" height="370" as="geometry" />
        </mxCell>
        <mxCell id="jW8SsWcP30lV7KbBp710-4" value="&lt;h6 style=&quot;line-height: 100%;&quot;&gt;&lt;span style=&quot;font-weight: normal;&quot;&gt;&lt;font face=&quot;Arial&quot;&gt;&lt;span style=&quot;font-size: 8px;&quot;&gt;Synchronise QGIS project&lt;/span&gt;&lt;/font&gt;&amp;nbsp;&lt;/span&gt;&lt;span style=&quot;font-size: 8.04px;&quot;&gt;QGIS &lt;br&gt;&lt;/span&gt;&lt;font color=&quot;#ff0000&quot;&gt;&lt;a href=&quot;https://usage.geocat.live/catalogue/srv/ita/catalog.search#/metadata/2d239512-faaa-4024-8c0f-ac369fbeb404&quot;&gt;Link to tools metadata&lt;/a&gt;&lt;/font&gt;&lt;/h6&gt;" style="points=[[0.25,0,0],[0.5,0,0],[0.75,0,0],[1,0.25,0],[1,0.5,0],[1,0.75,0],[0.75,1,0],[0.5,1,0],[0.25,1,0],[0,0.75,0],[0,0.5,0],[0,0.25,0]];shape=mxgraph.bpmn.task;whiteSpace=wrap;rectStyle=rounded;size=10;html=1;container=1;expand=0;collapsible=0;taskMarker=abstract;fillColor=#ff9b29;fontColor=#000000;strokeColor=#BD7000;" vertex="1" parent="SzkD9skeZVJdTODsGsiK-34">
          <mxGeometry x="682" y="68" width="200" height="44" as="geometry" />
        </mxCell>
        <mxCell id="74SUNnzkTKtyADVK5N_D-4" value="&lt;h6 style=&quot;line-height: 100%;&quot;&gt;&lt;span style=&quot;background-color: initial; font-size: 8px; font-weight: 400;&quot;&gt;&lt;font face=&quot;Arial&quot;&gt;Citizen Science Ferrara flooded area Python script&amp;nbsp;&lt;/font&gt;&lt;/span&gt;&lt;span style=&quot;font-weight: normal;&quot;&gt;&lt;font face=&quot;Arial&quot;&gt;&lt;span style=&quot;font-size: 8px;&quot;&gt;&lt;br&gt;&lt;/span&gt;&lt;/font&gt;&lt;/span&gt;&lt;font color=&quot;#ff0000&quot;&gt;&lt;a href=&quot;https://usage.geocat.live/catalogue/srv/ita/catalog.search#/metadata/78cf7716-e521-441e-92b5-87f6fe86c5f0&quot;&gt;Link to tool metadata&lt;/a&gt;&lt;/font&gt;&lt;/h6&gt;" style="points=[[0.25,0,0],[0.5,0,0],[0.75,0,0],[1,0.25,0],[1,0.5,0],[1,0.75,0],[0.75,1,0],[0.5,1,0],[0.25,1,0],[0,0.75,0],[0,0.5,0],[0,0.25,0]];shape=mxgraph.bpmn.task;whiteSpace=wrap;rectStyle=rounded;size=10;html=1;container=1;expand=0;collapsible=0;taskMarker=abstract;fillColor=#ff9b29;fontColor=#000000;strokeColor=#BD7000;" vertex="1" parent="SzkD9skeZVJdTODsGsiK-34">
          <mxGeometry x="913" y="167" width="200" height="44" as="geometry" />
        </mxCell>
        <mxCell id="74SUNnzkTKtyADVK5N_D-5" style="edgeStyle=orthogonalEdgeStyle;rounded=0;orthogonalLoop=1;jettySize=auto;html=1;entryX=0.5;entryY=0;entryDx=0;entryDy=0;entryPerimeter=0;" edge="1" parent="SzkD9skeZVJdTODsGsiK-34" source="jW8SsWcP30lV7KbBp710-4" target="74SUNnzkTKtyADVK5N_D-4">
          <mxGeometry relative="1" as="geometry" />
        </mxCell>
        <UserObject label="&lt;div style=&quot;&quot;&gt;&lt;div style=&quot;&quot;&gt;&lt;font face=&quot;Arial&quot;&gt;&lt;span style=&quot;font-size: 8px;&quot;&gt;Polygonal layer footprints of buildings&lt;/span&gt;&lt;/font&gt;&lt;b style=&quot;font-size: 8px; font-family: Arial; background-color: initial;&quot;&gt;&lt;font color=&quot;#ff0000&quot;&gt;&amp;nbsp;&lt;/font&gt;&lt;/b&gt;&lt;/div&gt;&lt;div style=&quot;&quot;&gt;&lt;a style=&quot;font-size: 8px; font-family: Arial; background-color: initial;&quot; href=&quot;https://usage.geocat.live/catalogue/srv/ita/catalog.search#/metadata/4a561dec-b977-4bb1-a5e3-6743c8e98fcd&quot;&gt;link to dataset metadata&lt;/a&gt;&lt;/div&gt;&lt;/div&gt;" id="74SUNnzkTKtyADVK5N_D-6">
          <mxCell style="shape=mxgraph.bpmn.data;labelPosition=center;verticalLabelPosition=bottom;align=center;verticalAlign=top;size=15;html=1;" vertex="1" parent="SzkD9skeZVJdTODsGsiK-34">
            <mxGeometry x="1122" y="40" width="28" height="34" as="geometry" />
          </mxCell>
        </UserObject>
        <mxCell id="74SUNnzkTKtyADVK5N_D-7" style="edgeStyle=orthogonalEdgeStyle;rounded=0;orthogonalLoop=1;jettySize=auto;html=1;entryX=0.75;entryY=0;entryDx=0;entryDy=0;entryPerimeter=0;dashed=1;" edge="1" parent="SzkD9skeZVJdTODsGsiK-34" source="74SUNnzkTKtyADVK5N_D-6" target="74SUNnzkTKtyADVK5N_D-4">
          <mxGeometry relative="1" as="geometry" />
        </mxCell>
        <UserObject label="&lt;div style=&quot;&quot;&gt;&lt;div style=&quot;&quot;&gt;&lt;font face=&quot;Arial&quot;&gt;&lt;span style=&quot;font-size: 8px;&quot;&gt;Mapping of area subject to flooding from heavy rains&lt;/span&gt;&lt;/font&gt;&lt;/div&gt;&lt;div style=&quot;font-size: 8px;&quot;&gt;&lt;font face=&quot;Arial&quot; style=&quot;font-size: 8px;&quot;&gt;&lt;a href=&quot;https://usage.geocat.live/catalogue/srv/ita/catalog.search#/metadata/e68fc0f1-f55a-4578-9797-4898eac8ae4c&quot;&gt;link to dataset metadata&lt;/a&gt;&lt;/font&gt;&lt;/div&gt;&lt;/div&gt;" id="74SUNnzkTKtyADVK5N_D-8">
          <mxCell style="shape=mxgraph.bpmn.data;labelPosition=center;verticalLabelPosition=bottom;align=center;verticalAlign=top;size=15;html=1;fillColor=#A3A3FF;strokeColor=#9673a6;" vertex="1" parent="SzkD9skeZVJdTODsGsiK-34">
            <mxGeometry x="1007" y="264" width="28" height="34" as="geometry" />
          </mxCell>
        </UserObject>
        <UserObject label="&lt;div style=&quot;&quot;&gt;&lt;div style=&quot;&quot;&gt;&lt;font face=&quot;Arial&quot;&gt;&lt;span style=&quot;font-size: 8px;&quot;&gt;DTM&lt;/span&gt;&lt;/font&gt;&lt;br&gt;&lt;/div&gt;&lt;div style=&quot;font-size: 8px;&quot;&gt;&lt;font face=&quot;Arial&quot; style=&quot;font-size: 8px;&quot;&gt;&amp;nbsp;&lt;a href=&quot;https://usage.geocat.live/catalogue/srv/ita/catalog.search#/metadata/2572fd30-294f-4350-85aa-bac6de8d7ad1&quot;&gt;link to dataset metadata&lt;/a&gt;&lt;/font&gt;&lt;/div&gt;&lt;/div&gt;" id="74SUNnzkTKtyADVK5N_D-9">
          <mxCell style="shape=mxgraph.bpmn.data;labelPosition=center;verticalLabelPosition=bottom;align=center;verticalAlign=top;size=15;html=1;" vertex="1" parent="SzkD9skeZVJdTODsGsiK-34">
            <mxGeometry x="1262" y="94" width="28" height="34" as="geometry" />
          </mxCell>
        </UserObject>
        <mxCell id="74SUNnzkTKtyADVK5N_D-10" style="edgeStyle=orthogonalEdgeStyle;rounded=0;orthogonalLoop=1;jettySize=auto;html=1;entryX=1;entryY=0.25;entryDx=0;entryDy=0;entryPerimeter=0;dashed=1;" edge="1" parent="SzkD9skeZVJdTODsGsiK-34" source="74SUNnzkTKtyADVK5N_D-9" target="74SUNnzkTKtyADVK5N_D-4">
          <mxGeometry relative="1" as="geometry" />
        </mxCell>
        <mxCell id="74SUNnzkTKtyADVK5N_D-11" style="edgeStyle=orthogonalEdgeStyle;rounded=0;orthogonalLoop=1;jettySize=auto;html=1;entryX=0;entryY=0;entryDx=6.5;entryDy=0;entryPerimeter=0;dashed=1;" edge="1" parent="SzkD9skeZVJdTODsGsiK-34" source="74SUNnzkTKtyADVK5N_D-4" target="74SUNnzkTKtyADVK5N_D-8">
          <mxGeometry relative="1" as="geometry" />
        </mxCell>
        <mxCell id="SzkD9skeZVJdTODsGsiK-67" value="Share data with technitians" style="swimlane;html=1;startSize=60;horizontal=0;whiteSpace=wrap;" vertex="1" parent="SzkD9skeZVJdTODsGsiK-2">
          <mxGeometry x="20" y="760" width="1630" height="200" as="geometry" />
        </mxCell>
        <mxCell id="cAKSegc-jqCY6T3uYCW5-2" value="&lt;h6 style=&quot;line-height: 100%;&quot;&gt;&lt;span style=&quot;font-weight: normal;&quot;&gt;&lt;font face=&quot;Arial&quot;&gt;&lt;span style=&quot;font-size: 8px;&quot;&gt;Create OGC web services to publish DRI&amp;nbsp;&lt;/span&gt;&lt;/font&gt;&lt;/span&gt;&lt;span style=&quot;font-size: 8.04px;&quot;&gt;&lt;a href=&quot;https://usage.geocat.live/catalogue/srv/ita/catalog.search#/metadata/f4fe374e-0a56-4910-9f3a-e8b7519c373e&quot;&gt;Link to tool metadata&lt;/a&gt;&lt;/span&gt;&lt;/h6&gt;" style="points=[[0.25,0,0],[0.5,0,0],[0.75,0,0],[1,0.25,0],[1,0.5,0],[1,0.75,0],[0.75,1,0],[0.5,1,0],[0.25,1,0],[0,0.75,0],[0,0.5,0],[0,0.25,0]];shape=mxgraph.bpmn.task;whiteSpace=wrap;rectStyle=rounded;size=10;html=1;container=1;expand=0;collapsible=0;taskMarker=abstract;fillColor=#ff9b29;fontColor=#000000;strokeColor=#BD7000;" vertex="1" parent="SzkD9skeZVJdTODsGsiK-67">
          <mxGeometry x="1315" y="140" width="155" height="44" as="geometry" />
        </mxCell>
        <mxCell id="74SUNnzkTKtyADVK5N_D-19" value="" style="points=[[0.145,0.145,0],[0.5,0,0],[0.855,0.145,0],[1,0.5,0],[0.855,0.855,0],[0.5,1,0],[0.145,0.855,0],[0,0.5,0]];shape=mxgraph.bpmn.event;html=1;verticalLabelPosition=bottom;labelBackgroundColor=#ffffff;verticalAlign=top;align=center;perimeter=ellipsePerimeter;outlineConnect=0;aspect=fixed;outline=end;symbol=terminate2;" vertex="1" parent="SzkD9skeZVJdTODsGsiK-67">
          <mxGeometry x="1530" y="142" width="40" height="40" as="geometry" />
        </mxCell>
        <mxCell id="4gBkEPSvFDmxvKT7NDcr-3" style="edgeStyle=orthogonalEdgeStyle;rounded=0;orthogonalLoop=1;jettySize=auto;html=1;entryX=0;entryY=0.5;entryDx=0;entryDy=0;entryPerimeter=0;exitX=1;exitY=0.5;exitDx=0;exitDy=0;exitPerimeter=0;" edge="1" parent="SzkD9skeZVJdTODsGsiK-67" source="cAKSegc-jqCY6T3uYCW5-2" target="74SUNnzkTKtyADVK5N_D-19">
          <mxGeometry relative="1" as="geometry">
            <mxPoint x="1480" y="158" as="sourcePoint" />
            <mxPoint x="1559" y="200" as="targetPoint" />
          </mxGeometry>
        </mxCell>
        <mxCell id="74SUNnzkTKtyADVK5N_D-14" style="edgeStyle=orthogonalEdgeStyle;rounded=0;orthogonalLoop=1;jettySize=auto;html=1;" edge="1" parent="SzkD9skeZVJdTODsGsiK-2" source="74SUNnzkTKtyADVK5N_D-4" target="74SUNnzkTKtyADVK5N_D-13">
          <mxGeometry relative="1" as="geometry" />
        </mxCell>
        <mxCell id="74SUNnzkTKtyADVK5N_D-15" style="edgeStyle=orthogonalEdgeStyle;rounded=0;orthogonalLoop=1;jettySize=auto;html=1;entryX=0.25;entryY=0;entryDx=0;entryDy=0;entryPerimeter=0;dashed=1;" edge="1" parent="SzkD9skeZVJdTODsGsiK-2" source="74SUNnzkTKtyADVK5N_D-8" target="74SUNnzkTKtyADVK5N_D-13">
          <mxGeometry relative="1" as="geometry" />
        </mxCell>
        <mxCell id="cAKSegc-jqCY6T3uYCW5-3" value="Share data with citizens" style="swimlane;html=1;startSize=60;horizontal=0;whiteSpace=wrap;" vertex="1" parent="SzkD9skeZVJdTODsGsiK-2">
          <mxGeometry x="20" y="960" width="1630" height="200" as="geometry" />
        </mxCell>
        <mxCell id="4gBkEPSvFDmxvKT7NDcr-1" value="&lt;h6 style=&quot;line-height: 100%;&quot;&gt;&lt;span style=&quot;font-weight: normal;&quot;&gt;&lt;font face=&quot;Arial&quot;&gt;&lt;span style=&quot;font-size: 8px;&quot;&gt;Create interactive simple web map with basic navigation and info functionalities &lt;/span&gt;&lt;/font&gt;&lt;/span&gt;&lt;span style=&quot;font-size: 8.04px;&quot;&gt;&lt;a href=&quot;https://usage.geocat.live/catalogue/srv/ita/catalog.search#/metadata/f4fe374e-0a56-4910-9f3a-e8b7519c373e&quot;&gt;Link to tool metadata&lt;/a&gt;&lt;/span&gt;&lt;/h6&gt;" style="points=[[0.25,0,0],[0.5,0,0],[0.75,0,0],[1,0.25,0],[1,0.5,0],[1,0.75,0],[0.75,1,0],[0.5,1,0],[0.25,1,0],[0,0.75,0],[0,0.5,0],[0,0.25,0]];shape=mxgraph.bpmn.task;whiteSpace=wrap;rectStyle=rounded;size=10;html=1;container=1;expand=0;collapsible=0;taskMarker=abstract;fillColor=#ff9b29;fontColor=#000000;strokeColor=#BD7000;" vertex="1" parent="cAKSegc-jqCY6T3uYCW5-3">
          <mxGeometry x="1315" y="70" width="155" height="44" as="geometry" />
        </mxCell>
        <mxCell id="4gBkEPSvFDmxvKT7NDcr-8" value="" style="points=[[0.145,0.145,0],[0.5,0,0],[0.855,0.145,0],[1,0.5,0],[0.855,0.855,0],[0.5,1,0],[0.145,0.855,0],[0,0.5,0]];shape=mxgraph.bpmn.event;html=1;verticalLabelPosition=bottom;labelBackgroundColor=#ffffff;verticalAlign=top;align=center;perimeter=ellipsePerimeter;outlineConnect=0;aspect=fixed;outline=end;symbol=terminate2;" vertex="1" parent="cAKSegc-jqCY6T3uYCW5-3">
          <mxGeometry x="1530" y="72" width="40" height="40" as="geometry" />
        </mxCell>
        <mxCell id="4gBkEPSvFDmxvKT7NDcr-9" style="edgeStyle=orthogonalEdgeStyle;rounded=0;orthogonalLoop=1;jettySize=auto;html=1;exitX=1;exitY=0.5;exitDx=0;exitDy=0;exitPerimeter=0;entryX=0;entryY=0.5;entryDx=0;entryDy=0;entryPerimeter=0;" edge="1" parent="cAKSegc-jqCY6T3uYCW5-3" source="4gBkEPSvFDmxvKT7NDcr-1" target="4gBkEPSvFDmxvKT7NDcr-8">
          <mxGeometry relative="1" as="geometry">
            <mxPoint x="1480" y="94" as="sourcePoint" />
            <mxPoint x="1520" y="70" as="targetPoint" />
          </mxGeometry>
        </mxCell>
        <mxCell id="cAKSegc-jqCY6T3uYCW5-40" value="Share data with decision makers" style="swimlane;html=1;startSize=60;horizontal=0;whiteSpace=wrap;" vertex="1" parent="SzkD9skeZVJdTODsGsiK-2">
          <mxGeometry x="20" y="1160" width="1630" height="200" as="geometry" />
        </mxCell>
        <mxCell id="4gBkEPSvFDmxvKT7NDcr-14" value="" style="edgeStyle=orthogonalEdgeStyle;rounded=0;orthogonalLoop=1;jettySize=auto;html=1;exitX=1;exitY=0.5;exitDx=0;exitDy=0;exitPerimeter=0;" edge="1" parent="cAKSegc-jqCY6T3uYCW5-40" source="4gBkEPSvFDmxvKT7NDcr-10" target="4gBkEPSvFDmxvKT7NDcr-11">
          <mxGeometry relative="1" as="geometry">
            <mxPoint x="1490" y="90" as="sourcePoint" />
          </mxGeometry>
        </mxCell>
        <mxCell id="4gBkEPSvFDmxvKT7NDcr-10" value="&lt;h6 style=&quot;line-height: 100%;&quot;&gt;&lt;span style=&quot;font-weight: normal;&quot;&gt;&lt;font face=&quot;Arial&quot;&gt;&lt;span style=&quot;font-size: 8px;&quot;&gt;Create interactive a webGIS viewer with navigagion and advanced functionalities &lt;/span&gt;&lt;/font&gt;&lt;/span&gt;&lt;span style=&quot;font-size: 8.04px;&quot;&gt;&lt;a href=&quot;https://usage.geocat.live/catalogue/srv/ita/catalog.search#/metadata/f4fe374e-0a56-4910-9f3a-e8b7519c373e&quot;&gt;Link to tool metadata&lt;/a&gt;&lt;/span&gt;&lt;/h6&gt;" style="points=[[0.25,0,0],[0.5,0,0],[0.75,0,0],[1,0.25,0],[1,0.5,0],[1,0.75,0],[0.75,1,0],[0.5,1,0],[0.25,1,0],[0,0.75,0],[0,0.5,0],[0,0.25,0]];shape=mxgraph.bpmn.task;whiteSpace=wrap;rectStyle=rounded;size=10;html=1;container=1;expand=0;collapsible=0;taskMarker=abstract;fillColor=#ff9b29;fontColor=#000000;strokeColor=#BD7000;" vertex="1" parent="cAKSegc-jqCY6T3uYCW5-40">
          <mxGeometry x="1316" y="100" width="155" height="44" as="geometry" />
        </mxCell>
        <mxCell id="4gBkEPSvFDmxvKT7NDcr-11" value="" style="points=[[0.145,0.145,0],[0.5,0,0],[0.855,0.145,0],[1,0.5,0],[0.855,0.855,0],[0.5,1,0],[0.145,0.855,0],[0,0.5,0]];shape=mxgraph.bpmn.event;html=1;verticalLabelPosition=bottom;labelBackgroundColor=#ffffff;verticalAlign=top;align=center;perimeter=ellipsePerimeter;outlineConnect=0;aspect=fixed;outline=end;symbol=terminate2;" vertex="1" parent="cAKSegc-jqCY6T3uYCW5-40">
          <mxGeometry x="1530" y="104" width="40" height="40" as="geometry" />
        </mxCell>
        <mxCell id="4gBkEPSvFDmxvKT7NDcr-12" style="edgeStyle=orthogonalEdgeStyle;rounded=0;orthogonalLoop=1;jettySize=auto;html=1;exitX=1;exitY=0.5;exitDx=0;exitDy=0;exitPerimeter=0;entryX=0;entryY=0.5;entryDx=0;entryDy=0;entryPerimeter=0;" edge="1" parent="cAKSegc-jqCY6T3uYCW5-40" target="4gBkEPSvFDmxvKT7NDcr-11">
          <mxGeometry relative="1" as="geometry">
            <mxPoint x="1470" y="124" as="sourcePoint" />
            <mxPoint x="1520" y="102" as="targetPoint" />
          </mxGeometry>
        </mxCell>
        <mxCell id="4gBkEPSvFDmxvKT7NDcr-4" style="edgeStyle=orthogonalEdgeStyle;rounded=0;orthogonalLoop=1;jettySize=auto;html=1;entryX=0;entryY=0.5;entryDx=0;entryDy=0;entryPerimeter=0;exitX=0.5;exitY=1;exitDx=0;exitDy=0;exitPerimeter=0;" edge="1" parent="SzkD9skeZVJdTODsGsiK-2" source="74SUNnzkTKtyADVK5N_D-13" target="cAKSegc-jqCY6T3uYCW5-2">
          <mxGeometry relative="1" as="geometry">
            <mxPoint x="1220" y="878" as="sourcePoint" />
            <mxPoint x="1299" y="920" as="targetPoint" />
          </mxGeometry>
        </mxCell>
        <mxCell id="4gBkEPSvFDmxvKT7NDcr-5" style="edgeStyle=orthogonalEdgeStyle;rounded=0;orthogonalLoop=1;jettySize=auto;html=1;entryX=0;entryY=0.5;entryDx=0;entryDy=0;entryPerimeter=0;exitX=0.5;exitY=1;exitDx=0;exitDy=0;exitPerimeter=0;" edge="1" parent="SzkD9skeZVJdTODsGsiK-2" source="74SUNnzkTKtyADVK5N_D-13" target="4gBkEPSvFDmxvKT7NDcr-1">
          <mxGeometry relative="1" as="geometry">
            <mxPoint x="1220" y="850" as="sourcePoint" />
            <mxPoint x="1318.5" y="1052" as="targetPoint" />
          </mxGeometry>
        </mxCell>
        <mxCell id="4gBkEPSvFDmxvKT7NDcr-13" style="edgeStyle=orthogonalEdgeStyle;rounded=0;orthogonalLoop=1;jettySize=auto;html=1;entryX=0;entryY=0.5;entryDx=0;entryDy=0;entryPerimeter=0;exitX=0.5;exitY=1;exitDx=0;exitDy=0;exitPerimeter=0;" edge="1" parent="SzkD9skeZVJdTODsGsiK-2" source="74SUNnzkTKtyADVK5N_D-13" target="4gBkEPSvFDmxvKT7NDcr-10">
          <mxGeometry relative="1" as="geometry">
            <mxPoint x="1170" y="1074" as="sourcePoint" />
            <mxPoint x="1264" y="1294" as="targetPoint" />
          </mxGeometry>
        </mxCell>
        <UserObject label="&lt;h6 style=&quot;line-height: 100%;&quot;&gt;&lt;span style=&quot;font-weight: normal;&quot;&gt;&lt;font face=&quot;Arial&quot;&gt;&lt;span style=&quot;font-size: 8px;&quot;&gt;Publish simplified flooded areas in&lt;/span&gt;&lt;/font&gt;&amp;nbsp;&lt;/span&gt;&lt;span style=&quot;font-size: 8.04px;&quot;&gt;QField Cloud &lt;br&gt;&lt;/span&gt;&lt;font color=&quot;#ff0000&quot;&gt;&lt;a href=&quot;https://usage.geocat.live/catalogue/srv/ita/catalog.search#/metadata/2d239512-faaa-4024-8c0f-ac369fbeb404&quot;&gt;Link to tools metadata&lt;/a&gt;&lt;/font&gt;&lt;/h6&gt;&lt;h6 style=&quot;line-height: 100%;&quot;&gt;&lt;font color=&quot;#ff0000&quot;&gt; &lt;/font&gt;&lt;/h6&gt;" linkTarget="_blank" id="jW8SsWcP30lV7KbBp710-0">
          <mxCell style="points=[[0.25,0,0],[0.5,0,0],[0.75,0,0],[1,0.25,0],[1,0.5,0],[1,0.75,0],[0.75,1,0],[0.5,1,0],[0.25,1,0],[0,0.75,0],[0,0.5,0],[0,0.25,0]];shape=mxgraph.bpmn.task;whiteSpace=wrap;rectStyle=rounded;size=10;html=1;container=1;expand=0;collapsible=0;taskMarker=abstract;fillColor=#ff9b29;fontColor=#000000;strokeColor=#BD7000;" vertex="1" parent="SzkD9skeZVJdTODsGsiK-1">
            <mxGeometry x="475" y="-4219" width="200" height="44" as="geometry" />
          </mxCell>
        </UserObject>
        <mxCell id="SzkD9skeZVJdTODsGsiK-29" style="edgeStyle=orthogonalEdgeStyle;rounded=0;orthogonalLoop=1;jettySize=auto;html=1;entryX=0.5;entryY=0;entryDx=0;entryDy=0;entryPerimeter=0;" edge="1" parent="SzkD9skeZVJdTODsGsiK-1" source="SzkD9skeZVJdTODsGsiK-6" target="jW8SsWcP30lV7KbBp710-0">
          <mxGeometry relative="1" as="geometry">
            <mxPoint x="690" y="-4200" as="targetPoint" />
          </mxGeometry>
        </mxCell>
        <mxCell id="jW8SsWcP30lV7KbBp710-1" style="edgeStyle=orthogonalEdgeStyle;rounded=0;orthogonalLoop=1;jettySize=auto;html=1;entryX=0;entryY=0.5;entryDx=0;entryDy=0;entryPerimeter=0;dashed=1;" edge="1" parent="SzkD9skeZVJdTODsGsiK-1" source="SzkD9skeZVJdTODsGsiK-7" target="jW8SsWcP30lV7KbBp710-0">
          <mxGeometry relative="1" as="geometry" />
        </mxCell>
        <mxCell id="jW8SsWcP30lV7KbBp710-5" style="edgeStyle=orthogonalEdgeStyle;rounded=0;orthogonalLoop=1;jettySize=auto;html=1;entryX=0.5;entryY=0;entryDx=0;entryDy=0;entryPerimeter=0;" edge="1" parent="SzkD9skeZVJdTODsGsiK-1" source="jW8SsWcP30lV7KbBp710-0" target="jW8SsWcP30lV7KbBp710-4">
          <mxGeometry relative="1" as="geometry" />
        </mxCell>
        <mxCell id="74SUNnzkTKtyADVK5N_D-17" value="&lt;h6 style=&quot;line-height: 100%;&quot;&gt;&lt;font style=&quot;&quot; face=&quot;Arial&quot;&gt;&lt;span style=&quot;font-size: 8px;&quot;&gt;&lt;span style=&quot;font-weight: normal;&quot;&gt;Create final metadata and publish in dati.comune.fe.it with &lt;/span&gt;GeoNext)&amp;nbsp; &amp;nbsp; &amp;nbsp; &amp;nbsp; &amp;nbsp; &amp;nbsp; &lt;a href=&quot;https://usage.geocat.live/catalogue/srv/ita/catalog.search#/metadata/f4fe374e-0a56-4910-9f3a-e8b7519c373e&quot;&gt;Link to tool metadata&lt;/a&gt;&lt;/span&gt;&lt;/font&gt;&lt;/h6&gt;" style="points=[[0.25,0,0],[0.5,0,0],[0.75,0,0],[1,0.25,0],[1,0.5,0],[1,0.75,0],[0.75,1,0],[0.5,1,0],[0.25,1,0],[0,0.75,0],[0,0.5,0],[0,0.25,0]];shape=mxgraph.bpmn.task;whiteSpace=wrap;rectStyle=rounded;size=10;html=1;container=1;expand=0;collapsible=0;taskMarker=abstract;fillColor=#ff9b29;fontColor=#000000;strokeColor=#BD7000;" vertex="1" parent="SzkD9skeZVJdTODsGsiK-1">
          <mxGeometry x="1385" y="-3554" width="156" height="44" as="geometry" />
        </mxCell>
        <mxCell id="74SUNnzkTKtyADVK5N_D-18" style="edgeStyle=orthogonalEdgeStyle;rounded=0;orthogonalLoop=1;jettySize=auto;html=1;entryX=0.5;entryY=0;entryDx=0;entryDy=0;entryPerimeter=0;" edge="1" parent="SzkD9skeZVJdTODsGsiK-1" source="74SUNnzkTKtyADVK5N_D-13" target="74SUNnzkTKtyADVK5N_D-17">
          <mxGeometry relative="1" as="geometry" />
        </mxCell>
        <mxCell id="4gBkEPSvFDmxvKT7NDcr-2" style="edgeStyle=orthogonalEdgeStyle;rounded=0;orthogonalLoop=1;jettySize=auto;html=1;entryX=0.5;entryY=0;entryDx=0;entryDy=0;entryPerimeter=0;exitX=1;exitY=0.5;exitDx=0;exitDy=0;exitPerimeter=0;" edge="1" parent="SzkD9skeZVJdTODsGsiK-1" source="74SUNnzkTKtyADVK5N_D-17" target="74SUNnzkTKtyADVK5N_D-19">
          <mxGeometry relative="1" as="geometry">
            <mxPoint x="1556" y="-3524" as="sourcePoint" />
            <mxPoint x="1650" y="-3480" as="targetPoint" />
          </mxGeometry>
        </mxCell>
      </root>
    </mxGraphModel>
  </diagram>
</mxfile>
